<?xml version="1.0" standalone="no"?><!DOCTYPE svg PUBLIC "-//W3C//DTD SVG 1.1//EN" "http://www.w3.org/Graphics/SVG/1.1/DTD/svg11.dtd"><svg t="1682753350555" class="icon" viewBox="0 0 1057 1024" version="1.1" xmlns="http://www.w3.org/2000/svg" p-id="1528" width="66.0625" height="64" xmlns:xlink="http://www.w3.org/1999/xlink"><path d="M0 1018.384516V132.129032a132.129032 132.129032 0 0 1 132.129032-132.129032h221.580387a99.096774 99.096774 0 0 1 77.130323 36.864l83.439484 103.424H1057.032258V1018.384516H0z" fill="#2D6AEA" p-id="1529"></path><path d="M66.064516 296.497548h924.903226a66.064516 66.064516 0 0 1 66.064516 66.064517v655.789419H0V362.562065a66.064516 66.064516 0 0 1 66.064516-66.064517z" fill="#CEDBF8" p-id="1530"></path><path d="M128.891871 257.816774m45.122064 0l708.971355 0q45.122065 0 45.122065 45.122065l0 0q0 45.122065-45.122065 45.122064l-708.971355 0q-45.122065 0-45.122064-45.122064l0 0q0-45.122065 45.122064-45.122065Z" fill="#FFFFFF" p-id="1531"></path><path d="M206.253419 631.609806m38.680775 0l386.708645 0q38.680774 0 38.680774 38.680775l0-0.033033q0 38.680774-38.680774 38.680775l-386.708645 0q-38.680774 0-38.680775-38.680775l0 0.033033q0-38.680774 38.680775-38.680775Z" fill="#FFFFFF" p-id="1532"></path><path d="M721.886968 567.163871a103.12671 103.12671 0 1 1 0 206.253419 103.12671 103.12671 0 0 1 0-206.253419z m0 64.445935a38.647742 38.647742 0 1 0 0 77.361549 38.647742 38.647742 0 0 0 0-77.361549z" fill="#FFFFFF" p-id="1533"></path></svg>