<?xml version="1.0" standalone="no"?><!DOCTYPE svg PUBLIC "-//W3C//DTD SVG 1.1//EN" "http://www.w3.org/Graphics/SVG/1.1/DTD/svg11.dtd"><svg t="1685274678309" class="icon" viewBox="0 0 1024 1024" version="1.1" xmlns="http://www.w3.org/2000/svg" p-id="9983" width="64" height="64" xmlns:xlink="http://www.w3.org/1999/xlink"><path d="M314.58 99.41A50.31 50.31 0 0 0 302 94c-6.5-1.67-13.55-1.4-19.47 2l-2 1.13-94.2 54.74-6.11 3.55c10.24-5.95 22.54-2.08 32 3.41l409.39 236.31 46.68-91.52z" fill="#C0D3F2" p-id="9984"></path><path d="M663.94 301.11l-46.41 91.67 31.42 18.14 46.65-91.54z" fill="#BFD2F2" p-id="9985"></path><path d="M690.83 316.63l-46.41 91.67 12.71 7.34 47-91.34z" fill="#BED2F2" p-id="9986"></path><path d="M699.34 321.55l-46.41 91.67 22 12.67 45.73-92.07z" fill="#BDD1F2" p-id="9987"></path><path d="M717.06 331.78l-46.41 91.67 16.11 9.3 45.61-92.14z" fill="#BCD1F1" p-id="9988"></path><path d="M727.63 337.88l-46.41 91.67 22.52 13L751 351.37z" fill="#BBD0F1" p-id="9989"></path><path d="M746.39 348.71L700 440.39l10.9 6.29 3.37 2.07 47.52-91.17z" fill="#BACFF1" p-id="9990"></path><path d="M758 355.4l-46.42 91.68a80.81 80.81 0 0 1 16.72 13.39l47.92-94.54z" fill="#B9CFF1" p-id="9991"></path><path d="M773 364.08l-47.41 93.65a107.49 107.49 0 0 1 11.75 13.76l49.52-99.4z" fill="#B8CEF1" p-id="9992"></path><path d="M784.35 370.63l-49.41 97.58a108.63 108.63 0 0 1 12.74 21.53c0.2 0.45 1.64 4 1.83 4.43l57.43-110.49z" fill="#B7CEF1" p-id="9993"></path><path d="M803.62 381.76l-55.35 109.33a102.28 102.28 0 0 1 5.59 17.39l62.66-119.14c-1.62-1.16-8.38-4.97-12.9-7.58z" fill="#B6CDF1" p-id="9994"></path><path d="M814.15 387.84l-1.26-0.73-59.79 118.1a76.83 76.83 0 0 1 2.43 19.08c0 0.41 0 19.6-0.06 33.59l77.93-153.54c-4.54-5.71-13.47-13.11-19.25-16.5z" fill="#B4CCF0" p-id="9995"></path><path d="M829.77 400.29L755.47 547c0 11-0.07 38.88-0.12 55.86L846.3 423c-3.57-7.23-11.63-17.65-16.53-22.71z" fill="#B3CCF0" p-id="9996"></path><path d="M844.16 419.2q-0.69-1.13-1.4-2.26l-87.41 172.65c0 7.06 0 30.23-0.06 38l96.41-193.32c-1.34-4.01-5.92-12.41-7.54-15.07z" fill="#B2CBF0" p-id="9997"></path><path d="M857.78 461.85c-0.36-11.82-3.85-23.66-9.1-34.38l-93.39 184.46c-0.06 19.57-0.12 55.36-0.18 78l102.65-200.8c0.01-7.13 0.02-27.18 0.02-27.28z" fill="#B1CBF0" p-id="9998"></path><path d="M857.76 473L755.11 675.79c0 7.18 0 33-0.06 40.31L857.7 512c0.03-8.89 0.04-33.46 0.06-39z" fill="#B0CAF0" p-id="9999"></path><path d="M857.7 494.79L755 697.55c-0.05 19.17-0.11 54.67-0.16 73.83l102.67-204.5c0.1-22.59 0.15-56.74 0.19-72.09z" fill="#AFC9F0" p-id="10000"></path><path d="M857.55 552.6L754.88 755.39c0 9-0.05 33.72-0.08 42.5l102.68-199c0.03-9.23 0.05-37.74 0.07-46.29z" fill="#AEC9EF" p-id="10001"></path><path d="M857.48 579.32l-102.67 202.8c-0.06 21.06-0.12 52.49-0.17 70.77l102.68-199.5c0.06-20.5 0.11-55.18 0.16-74.07z" fill="#ADC8EF" p-id="10002"></path><path d="M857.32 638.83L754.64 841.64c0 9.77-0.05 31.22-0.08 39.75l102.68-190.5c0.03-9.2 0.05-42.94 0.08-52.06z" fill="#ACC8EF" p-id="10003"></path><path d="M843.75 897.57c9-5.34 12.32-15.91 12.84-25.83 0.06-1.15 0.36-103.35 0.65-205.4L754.56 869.16l-0.17 58.72c0 10.86-2.79 23.24-12.91 29.12l13-7.55c9.9-5.75 88.12-51.2 89.27-51.88z" fill="#ABC7EF" p-id="10004"></path><path d="M711.57 447.08c24.27 14 44.05 48.28 44 76.16l-1.15 405.53c-0.08 27.88-20 39.23-44.26 25.22l-500-288.66c-24.26-14-44-48.28-44-76.16l1.15-405.53c0.08-27.88 20-39.23 44.25-25.23z" fill="#F0F5FF" p-id="10005"></path><path d="M677.78 648.29l77.28 44.62v-9.36l-77.26-44.62-2.68-1.55-103.28-59.62-106-61.17-9.77-5.64-96.18-55.53-0.65-0.37L254 394.23l-4.11-2.37-83-47.91v9.36L244.18 398l-0.26 91.69L166.6 445v9.36L243.89 499l-0.26 91.69-77.32-44.64v9.35l77.32 44.64-0.24 84.46 9.77 5.64 0.24-84.46 96.19 55.53-0.24 84.46 9.77 5.64 0.24-84.46 96.18 55.53-0.24 84.46 9.77 5.64 0.24-84.46 96.19 55.53-0.26 84.45 9.77 5.64 0.24-84.46 96.19 55.53-0.24 84.46 9.77 5.64 0.24-84.46L754.49 895v-9.35L677.23 841l0.26-91.69L754.77 794v-9.36L677.52 740l0.26-91.69z m-327.9 2.9l-96.19-55.53 0.26-91.69 96.19 55.53z m0-100.37l-96.19-55.53 0.26-91.69 96.19 55.53z m105.92 70.53l-0.26 91.65-96.18-55.53 0.26-91.69 96.18 55.53z m0.29-101.05l-0.26 91.7-96.18-55.53 0.26-91.69 96.18 55.53z m105.67 162.23l-0.26 91.69-96.19-55.53 0.26-91.69 96.19 55.53z m0.29-101.05l-0.26 91.69-96.19-55.54 0.26-91.69 96.19 55.53zM668 743.29l-0.24 91.71-96.19-55.53 0.26-91.69L668 743.29z m0-99.87l-0.26 91.69-96.19-55.53 0.26-91.69L668 643.42z" fill="#DEE8FF" p-id="10006"></path><path d="M428.22 139.52c-0.07-24.22-8.68-41.24-22.54-49.21l0.16 0.09-14.74-8.57L371 70.15a45.08 45.08 0 0 0-10-4.53 46.82 46.82 0 0 0-21.92-0.62c-16 3.09-30.42 12.2-42.67 22.68a164.14 164.14 0 0 0-32.3 38.23 191.5 191.5 0 0 0-11.27 21c-0.37 0.81-0.73 1.63-1.09 2.45-0.56 1.26-1.12 2.52-1.64 3.79-0.22 0.53-0.43 1.08-0.64 1.61q-1.44 3.55-2.71 7.17c-0.31 0.86-0.62 1.72-0.92 2.58q-1 3.1-2 6.24c-0.16 0.54-0.31 1.08-0.46 1.63s-0.37 1.33-0.55 2q-0.69 2.55-1.28 5.14-0.86 3.73-1.5 7.53c-0.13 0.73-0.25 1.47-0.36 2.21s-0.19 1.3-0.28 1.95q-0.44 3.19-0.7 6.4a106.304 106.304 0 0 0-0.29 4.89c-0.07 1.85-0.09 3.7-0.06 5.54s0.12 3.59 0.25 5.38c0.17 2.27 0.41 4.52 0.76 6.77q0.2 1.31 0.45 2.62a66.56 66.56 0 0 0 1.84 7.34q0.66 2.1 1.47 4.15 0.52 1.33 1.12 2.62 1 2.21 2.21 4.3a44.74 44.74 0 0 0 4 5.86 38.2 38.2 0 0 0 10.37 9c5.31 3.11 10.64 6.18 16 9.27l3.59 2.09 15.78 9.17 1.14 0.66-0.18-0.11c14 8.22 33.34 7.15 54.7-5.18l-0.07-25.34-20.25-11.77-12.63-7.34a34.88 34.88 0 0 0-3.27-1.9c-0.54-0.24-0.27-0.28-1 0.14a65.82 65.82 0 0 1-6.79 3.34 50.84 50.84 0 0 1-8.55 2.73 56.92 56.92 0 0 1-2.3-16.53c-0.1-34.59 24.32-76.88 54.42-94.26a55.71 55.71 0 0 1 15.92-6.38 56.24 56.24 0 0 1 2.51 17.2l36.52 21.22L426 163.68s0.92-2.66 1.71-10a85.24 85.24 0 0 0 0.51-14.16zM589.22 232.86c-0.07-24.22-8.68-41.24-22.54-49.21l0.16 0.09-14.74-8.57-20.1-11.68a45.08 45.08 0 0 0-10-4.49 46.82 46.82 0 0 0-21.89-0.63c-16 3.09-30.42 12.2-42.67 22.68a164.14 164.14 0 0 0-32.3 38.23 191.49 191.49 0 0 0-11.27 21c-0.37 0.81-0.73 1.63-1.09 2.45-0.56 1.26-1.12 2.52-1.64 3.79-0.22 0.53-0.43 1.08-0.64 1.61q-1.44 3.55-2.71 7.17c-0.31 0.86-0.62 1.72-0.92 2.58q-1 3.1-2 6.24c-0.16 0.54-0.31 1.08-0.46 1.63s-0.37 1.33-0.55 2q-0.69 2.55-1.28 5.14-0.86 3.73-1.5 7.53c-0.13 0.73-0.25 1.47-0.36 2.21s-0.19 1.3-0.28 1.95q-0.44 3.19-0.7 6.4a106.304 106.304 0 0 0-0.29 4.89c-0.07 1.85-0.09 3.7-0.06 5.54s0.12 3.59 0.25 5.38c0.17 2.27 0.41 4.52 0.76 6.77q0.2 1.31 0.45 2.62a66.56 66.56 0 0 0 1.84 7.34q0.66 2.1 1.47 4.15 0.52 1.33 1.12 2.62 1 2.21 2.21 4.3a44.75 44.75 0 0 0 4 5.86 38.21 38.21 0 0 0 10.37 9c5.31 3.11 10.64 6.18 16 9.27l3.59 2.09 15.78 9.17 1.14 0.66-0.18-0.11c14 8.22 33.34 7.15 54.7-5.18l-0.07-25.34-20.33-11.91-12.63-7.34a34.87 34.87 0 0 0-3.27-1.9c-0.54-0.24-0.27-0.28-1 0.14a65.82 65.82 0 0 1-6.79 3.34 50.84 50.84 0 0 1-8.55 2.73 56.92 56.92 0 0 1-2.25-16.43c-0.1-34.59 24.32-76.88 54.42-94.26A55.71 55.71 0 0 1 528.3 208a56.24 56.24 0 0 1 2.51 17.2l36.52 21.22L587 257s0.92-2.66 1.71-10a85.24 85.24 0 0 0 0.51-14.14z" fill="#ABC7EF" p-id="10007"></path><path d="M553.11 208.55l-38.24-18.34c9.81 5.7 15.9 17.8 15.94 35l36.52 21.22c-0.05-17.19-4.42-32.18-14.22-37.88zM501.77 346.22c3.92-1.31 7.39-4.29 11-6.36l-20.28-11.76-12.63-7.34a34.88 34.88 0 0 0-3.27-1.9c-0.54-0.24-0.27-0.28-1 0.14a65.81 65.81 0 0 1-6.79 3.34c-9.91 4.15-21.72 5.7-31.4 0.07L455.56 333c6.12 3.55 11.58 8.56 17.71 12.08 8.45 4.82 19.51 4.15 28.5 1.14z" fill="#C0D3F2" p-id="10008"></path><path d="M532 163.49a45.08 45.08 0 0 0-10-4.49 46.82 46.82 0 0 0-21.89-0.63c-16 3.09-30.42 12.2-42.67 22.68a164.14 164.14 0 0 0-32.3 38.23 194.81 194.81 0 0 0-11.79 22.1l35.74 22.8a185.73 185.73 0 0 1 19.39-33.84 145.9 145.9 0 0 1 42-38.92c14.94-9.18 33.7-16.77 50.94-10.23a35.26 35.26 0 0 1 5.46 2.59l-14.74-8.57z" fill="#C0D3F2" p-id="10009"></path><path d="M412.16 244L448 266.61c0.35-0.82 2.21-5 2.57-5.8l-36.74-20.61c-0.37 0.8-1.3 2.94-1.67 3.8z" fill="#C1D4F2" p-id="10010"></path><path d="M410.59 247.68l35.84 22.77c0.51-1.29 2-4.69 2.5-6l-36.19-21.85c-0.55 1.3-1.62 3.71-2.15 5.08z" fill="#C2D4F3" p-id="10011"></path><path d="M409.88 249.5l35.93 22.57c0.21-0.54 1.82-4.43 2-5l-36.71-20.64c-0.22 0.57-1.01 2.57-1.22 3.07z" fill="#C3D5F3" p-id="10012"></path><path d="M407.29 256.49l35.93 22.83c0.81-2.44 2.16-6.31 3.17-8.71L410.46 248c-0.96 2.41-2.32 6.08-3.17 8.49z" fill="#C4D6F4" p-id="10013"></path><path d="M406.41 259l36 23c0.28-0.88 1.44-4.48 1.73-5.36l-36.35-21.38c-0.35 0.81-1.09 2.86-1.38 3.74z" fill="#C5D7F4" p-id="10014"></path><path d="M404.85 264c-0.16 0.54-0.61 2-0.74 2.6l36 23.29q1-3.85 2.16-7.62l0.88-2.75-36.31-21.76q-1.06 3.13-1.99 6.24z" fill="#C7D8F5" p-id="10015"></path><path d="M403.42 269.23L439.58 292c0.17-0.68 1.26-4.75 1.43-5.43l-36.62-20.87c-0.23 0.68-0.74 2.69-0.97 3.53z" fill="#C8D9F6" p-id="10016"></path><path d="M402.17 274.54l36.24 22.64c0.36-1.75 1.28-5.5 1.74-7.41l-36.32-22.1c-0.46 1.69-1.3 5.03-1.66 6.87z" fill="#C9D9F6" p-id="10017"></path><path d="M400.87 281.39l36.2 23.42c0.37-2.56 1.23-7.45 1.95-10.31l-36.46-21.7c-0.56 2.49-1.26 6.07-1.69 8.59z" fill="#CADAF6" p-id="10018"></path><path d="M400.53 283.6l36.22 23.46c0.19-1.33 0.69-4.54 0.82-5.44L401 280.33c-0.08 0.73-0.36 2.4-0.47 3.27z" fill="#CBDBF7" p-id="10019"></path><path d="M400.21 286l36.31 23c0.07-0.66 0.36-3.06 0.44-3.72l-36.28-22.78c-0.1 0.68-0.38 2.82-0.47 3.5z" fill="#CCDCF7" p-id="10020"></path><path d="M399.62 292.08L436 315.55c0.11-2.17 0.4-6.06 0.73-8.29l-36.33-22.78c-0.29 2.13-0.64 5.27-0.78 7.6z" fill="#CDDCF8" p-id="10021"></path><path d="M399.48 294.49l36.42 23.66c0-0.87 0.11-3.81 0.24-4.85l-36.43-22.42c-0.07 0.85-0.18 2.7-0.23 3.61z" fill="#CEDDF8" p-id="10022"></path><path d="M399.38 297.17l36.48 23.35c0-0.79 0.05-3.12 0.07-3.92l-36.4-23.18c-0.05 0.79-0.12 2.92-0.15 3.75z" fill="#CFDEF9" p-id="10023"></path><path d="M399.42 303.14L436 326.22c-0.11-1.89-0.16-5.54-0.16-7.44l-36.43-23c-0.06 1.83-0.13 4.87 0.01 7.36z" fill="#D0DFF9" p-id="10024"></path><path d="M399.72 308l36.78 23.77c-0.22-1.84-0.49-5.55-0.57-7.46l-36.57-23c0.03 1.79 0.17 4.77 0.36 6.69z" fill="#D2DFFA" p-id="10025"></path><path d="M400.37 313.46c0.13 0.87 0.52 3 0.72 4l37.2 24.13c-0.34-1.31-0.65-2.63-0.9-4-0.37-1.93-0.79-4.74-1-6.74l-36.79-24.16c0.18 2.31 0.4 4.52 0.77 6.77z" fill="#D3E0FA" p-id="10026"></path><path d="M402.91 324.19l38 25.2a75.54 75.54 0 0 1-3-9.57l-37.05-23.74a68 68 0 0 0 2.05 8.11z" fill="#D4E1FA" p-id="10027"></path><path d="M404.46 328.36L443 354a59.12 59.12 0 0 1-2.69-6l-37.66-24.54a87.78 87.78 0 0 0 1.81 4.9z" fill="#D5E1FB" p-id="10028"></path><path d="M405.66 331l39.68 26.9a52.83 52.83 0 0 1-3.17-5.67l-38-24.72c0.31 0.93 1.04 2.67 1.49 3.49z" fill="#D6E2FB" p-id="10029"></path><path d="M408.05 335.49l41.76 28.2a51.29 51.29 0 0 1-5.05-6.66l-39.51-26.86a57.83 57.83 0 0 0 2.8 5.32z" fill="#D7E3FC" p-id="10030"></path><path d="M411.46 340.33l2.75 2.42 27.17 17.92 15.78 9.17 1.14 0.66a37.31 37.31 0 0 1-9.46-7.9l-41.38-28.13a44.75 44.75 0 0 0 4 5.86z" fill="#D8E4FC" p-id="10031"></path><path d="M421.83 349.31c5.31 3.11 10.64 6.18 16 9.27l3.59 2.09-0.52-1-29.4-19.3a38.21 38.21 0 0 0 10.33 8.94z" fill="#D9E4FD" p-id="10032"></path><path d="M512.31 189c42.27-24.4 76.77-4.74 76.91 43.82a85.24 85.24 0 0 1-0.52 14.2c-0.8 7.3-1.71 10-1.71 10l-19.66-10.59c-0.1-34.59-24.84-49.43-54.95-32s-54.52 59.62-54.38 94.21 24.67 48.6 54.78 31.22l0.07 25.34c-42.26 24.4-76.77 4.74-76.9-43.83S470 213.44 512.31 189z" fill="#ABC7EF" p-id="10033"></path><path d="M392.11 115.22l-38.24-18.34c9.81 5.7 15.9 17.8 15.94 35l36.52 21.22c-0.05-17.19-4.41-32.18-14.22-37.88zM340.78 252.88c3.92-1.31 7.39-4.29 11-6.36l-20.25-11.77-12.63-7.34a34.88 34.88 0 0 0-3.27-1.9c-0.54-0.24-0.27-0.28-1 0.14a65.81 65.81 0 0 1-6.79 3.34c-9.91 4.15-21.72 5.7-31.4 0.07l18.18 10.56c6.12 3.55 11.58 8.56 17.71 12.08 8.4 4.87 19.45 4.2 28.45 1.18z" fill="#C0D3F2" p-id="10034"></path><path d="M371 70.15a45.08 45.08 0 0 0-10-4.53 46.82 46.82 0 0 0-21.92-0.62c-16 3.09-30.42 12.2-42.67 22.68a164.14 164.14 0 0 0-32.3 38.23A194.81 194.81 0 0 0 252.32 148l35.74 22.8a185.73 185.73 0 0 1 19.4-33.8 145.9 145.9 0 0 1 42-38.92c14.94-9.18 33.7-16.77 50.94-10.23a35.26 35.26 0 0 1 5.46 2.59l-14.76-8.6z" fill="#C0D3F2" p-id="10035"></path><path d="M251.17 150.62L287 173.27c0.35-0.82 2.21-5 2.57-5.8l-36.74-20.61c-0.37 0.81-1.3 2.94-1.66 3.76z" fill="#C1D4F2" p-id="10036"></path><path d="M249.6 154.35l35.84 22.77c0.51-1.29 2-4.69 2.5-6l-36.19-21.82c-0.56 1.26-1.63 3.7-2.15 5.05z" fill="#C2D4F3" p-id="10037"></path><path d="M248.88 156.16l35.93 22.57c0.21-0.54 1.82-4.43 2-5l-36.71-20.64c-0.22 0.54-1 2.53-1.22 3.07z" fill="#C3D5F3" p-id="10038"></path><path d="M246.29 163.15L282.22 186c0.81-2.44 2.16-6.31 3.17-8.71l-35.93-22.59c-0.96 2.37-2.31 6.04-3.17 8.45z" fill="#C4D6F4" p-id="10039"></path><path d="M245.41 165.65l36 23c0.28-0.88 1.44-4.48 1.73-5.36l-36.35-21.38c-0.35 0.83-1.09 2.87-1.38 3.74z" fill="#C5D7F4" p-id="10040"></path><path d="M243.85 170.7c-0.16 0.54-0.61 2-0.74 2.6l36 23.29q1-3.85 2.16-7.62l0.88-2.75-36.31-21.76q-1.05 3.1-1.99 6.24z" fill="#C7D8F5" p-id="10041"></path><path d="M242.43 175.89l36.15 22.73c0.17-0.68 1.26-4.75 1.43-5.43l-36.62-20.87c-0.23 0.68-0.74 2.74-0.96 3.57z" fill="#C8D9F6" p-id="10042"></path><path d="M241.17 181.2l36.24 22.64c0.36-1.75 1.28-5.5 1.74-7.41l-36.32-22.1c-0.45 1.67-1.29 5.04-1.66 6.87z" fill="#C9D9F6" p-id="10043"></path><path d="M239.87 188.06l36.2 23.42c0.37-2.56 1.23-7.45 1.95-10.31l-36.46-21.7c-0.56 2.53-1.26 6.06-1.69 8.59z" fill="#CADAF6" p-id="10044"></path><path d="M239.53 190.26l36.22 23.46c0.19-1.33 0.69-4.54 0.82-5.44L240 187c-0.08 0.73-0.35 2.39-0.47 3.26z" fill="#CBDBF7" p-id="10045"></path><path d="M239.21 192.64l36.31 23.06c0.07-0.66 0.36-3.06 0.44-3.72l-36.28-22.78c-0.1 0.65-0.38 2.8-0.47 3.44z" fill="#CCDCF7" p-id="10046"></path><path d="M238.62 198.75L275 222.21c0.11-2.17 0.4-6.06 0.73-8.29l-36.32-22.78c-0.29 2.13-0.64 5.27-0.79 7.61z" fill="#CDDCF8" p-id="10047"></path><path d="M238.48 201.16l36.42 23.66c0-0.87 0.11-3.81 0.24-4.85l-36.43-22.42c-0.07 0.84-0.17 2.7-0.23 3.61z" fill="#CEDDF8" p-id="10048"></path><path d="M238.38 203.84l36.48 23.35c0-0.79 0.05-3.12 0.07-3.92l-36.4-23.18c-0.04 0.78-0.12 2.91-0.15 3.75z" fill="#CFDEF9" p-id="10049"></path><path d="M238.42 209.81L275 232.88c-0.11-1.89-0.16-5.54-0.16-7.44l-36.43-23c-0.06 1.84-0.13 4.87 0.01 7.37z" fill="#D0DFF9" p-id="10050"></path><path d="M238.72 214.66l36.78 23.77c-0.22-1.84-0.49-5.55-0.57-7.46l-36.57-23c0.03 1.8 0.17 4.77 0.36 6.69z" fill="#D2DFFA" p-id="10051"></path><path d="M239.37 220.12c0.13 0.87 0.52 3 0.72 4l37.2 24.13c-0.34-1.31-0.65-2.63-0.9-4-0.37-1.93-0.79-4.74-1-6.74l-36.79-24.16c0.18 2.27 0.4 4.53 0.77 6.77z" fill="#D3E0FA" p-id="10052"></path><path d="M241.91 230.85l38 25.2a75.54 75.54 0 0 1-3-9.57l-37.05-23.74a68 68 0 0 0 2.05 8.11z" fill="#D4E1FA" p-id="10053"></path><path d="M243.46 235L282 260.65a59.12 59.12 0 0 1-2.69-6l-37.66-24.54c0.45 1.37 1.22 3.49 1.81 4.89z" fill="#D5E1FB" p-id="10054"></path><path d="M244.66 237.71l39.68 26.9a52.83 52.83 0 0 1-3.17-5.67l-38-24.72c0.31 0.89 1.04 2.62 1.49 3.49z" fill="#D6E2FB" p-id="10055"></path><path d="M247.06 242.15l41.76 28.2a51.29 51.29 0 0 1-5.05-6.66l-39.51-26.86a57.83 57.83 0 0 0 2.8 5.32z" fill="#D7E3FC" p-id="10056"></path><path d="M250.46 247l2.75 2.42 27.17 17.92 15.78 9.17 1.14 0.66a37.31 37.31 0 0 1-9.46-7.9l-41.38-28.13a44.75 44.75 0 0 0 4 5.86z" fill="#D8E4FC" p-id="10057"></path><path d="M260.83 256c5.31 3.11 10.64 6.18 16 9.27l3.59 2.09-0.52-1L250.46 247a38.21 38.21 0 0 0 10.37 9z" fill="#D9E4FD" p-id="10058"></path><path d="M351.31 95.7c42.27-24.4 76.77-4.74 76.91 43.82a85.24 85.24 0 0 1-0.52 14.2c-0.8 7.3-1.71 10-1.71 10l-19.66-10.59c-0.1-34.59-24.84-49.43-54.95-32S296.87 180.72 297 215.3s24.67 48.6 54.78 31.22l0.07 25.34c-42.26 24.4-76.77 4.74-76.9-43.83S309 120.1 351.31 95.7z" fill="#ABC7EF" p-id="10059"></path><path d="M750.89 326.08c-0.07-24.22-8.68-41.24-22.54-49.21l0.16 0.09-14.74-8.57-20.11-11.69a45.09 45.09 0 0 0-10-4.53 46.82 46.82 0 0 0-21.89-0.63 73 73 0 0 0-17.16 5.7l-1.3 0.64-0.69 0.34q-2.78 1.39-5.47 3l-1.34 0.8-1 0.62-1.81 1.1-0.9 0.59q-2.26 1.5-4.44 3.09l-1 0.75-1.53 1.16q-1.17 0.9-2.31 1.81l-0.8 0.65c-1 0.8-2 1.6-2.91 2.42-0.56 0.48-1.1 1-1.65 1.48l-1.08 1-0.9 0.8c-0.36 0.33-0.73 0.64-1.09 1s-0.67 0.66-1 1q-1.39 1.22-2.69 2.51l-0.66 0.65c-1.07 1.08-2.1 2.2-3.13 3.31-0.36 0.39-0.73 0.76-1.08 1.15s-0.76 0.87-1.15 1.3c-0.53 0.6-1.05 1.2-1.57 1.81s-1.29 1.47-1.92 2.23c-0.34 0.4-0.66 0.82-1 1.22-0.62 0.75-1.23 1.51-1.84 2.28-0.36 0.46-0.73 0.91-1.08 1.37s-0.82 1.1-1.23 1.64c-0.71 0.94-1.43 1.88-2.12 2.84-0.3 0.42-0.6 0.85-0.9 1.28l-0.77 1.1c-1 1.38-1.91 2.77-2.84 4.17-0.34 0.52-0.67 1-1 1.57l-0.85 1.31-0.6 0.93-0.19 0.29c-0.36 0.58-0.7 1.17-1.05 1.75l-0.68 1.14q-1.34 2.25-2.62 4.52c-0.7 1.24-1.4 2.49-2.07 3.75-0.27 0.51-0.52 1-0.79 1.53l-0.53 1-0.62 1.2q-0.7 1.38-1.37 2.77l-0.52 1.09c-0.52 1.1-1.05 2.2-1.56 3.31-0.26 0.58-0.5 1.17-0.76 1.75-0.32 0.73-0.64 1.46-1 2.2-0.17 0.39-0.35 0.78-0.51 1.17s-0.37 0.95-0.57 1.42c-0.55 1.36-1.09 2.72-1.61 4.09-0.17 0.45-0.33 0.9-0.49 1.34s-0.35 1-0.52 1.47c-0.47 1.31-0.94 2.63-1.38 4-0.29 0.89-0.56 1.78-0.84 2.67-0.17 0.53-0.34 1.05-0.5 1.58-0.11 0.35-0.23 0.7-0.33 1.05-0.18 0.6-0.34 1.2-0.51 1.81q-0.4 1.41-0.77 2.83t-0.69 2.76q-0.32 1.32-0.61 2.65c-0.14 0.65-0.29 1.3-0.42 2q-0.3 1.45-0.56 2.91-0.34 1.85-0.62 3.72-0.17 1.14-0.32 2.27c-0.09 0.68-0.17 1.36-0.25 2-0.2 1.7-0.36 3.4-0.48 5.1q-0.2 2.83-0.25 5.67v4.2c0 0.73 0 1.47 0.07 2.21s0.09 1.44 0.14 2.16c0.17 2.37 0.42 4.74 0.78 7.09 2.18 14.2 8.64 28.34 21.46 35.85 5.31 3.11 10.64 6.18 16 9.27L618.79 463l1.14 0.66-0.19-0.12c14 8.23 33.34 7.16 54.71-5.17v-25.34l-20.25-11.77-2.75-1.6-3.67-2.13-3.84-2.23-2.41-1.3a34.88 34.88 0 0 0-3.27-1.9l-0.34-0.16c-0.14-0.05-0.18 0-0.67 0.3-1.74 1-3.51 1.88-5.33 2.7l-1.46 0.64-1.21 0.48a50.1 50.1 0 0 1-7.34 2.25 56.92 56.92 0 0 1-2.28-16.43A84.41 84.41 0 0 1 621 386.8q0.86-4.83 2.23-9.71 1.3-4.62 3-9.23c0.63-1.69 1.31-3.37 2-5q1.84-4.35 4-8.6 1.17-2.28 2.43-4.52 2.45-4.36 5.21-8.53 1.58-2.38 3.25-4.67 1.44-2 3-3.9 1.14-1.44 2.31-2.85 1.41-1.68 2.86-3.28a108 108 0 0 1 9.92-9.7c2.3-2 4.65-3.81 7-5.48 1.6-1.12 3.23-2.16 4.87-3.14l0.89-0.54c1.09-0.63 2.17-1.2 3.24-1.75q2.42-1.23 4.79-2.2a52.9 52.9 0 0 1 5.12-1.79c0.95-0.28 1.89-0.53 2.82-0.73a56.87 56.87 0 0 1 2.29 16.46l0.45 0.26 6.15 3.58 4.28 2.49 1.9 1.11 0.8 0.46 1.94 1.13 6.26 3.64 1.69 1 13 7.58 19.82 11.42s0.92-2.66 1.71-10a85.24 85.24 0 0 0 0.66-14.23z" fill="#FF8C72" p-id="10060"></path><path d="M715.79 305.81q-0.83-0.64-1.69-1.21c-0.4-0.26-0.79-0.53-1.2-0.77l-5.06-2.94-1.94-1.13-0.8-0.46-1.9-1.11-4.28-2.49-6.15-3.58-3.94-2.29-4.19-2.44-1.61-0.94-6.64-3.86a26.83 26.83 0 0 1 6.64 5.48c0.56 0.64 1.09 1.31 1.61 2a34.41 34.41 0 0 1 4.19 7.6 53.54 53.54 0 0 1 3.5 19.9l0.45 0.26 6.15 3.58 4.28 2.49 1.9 1.11 0.8 0.46 1.94 1.13 6.26 3.64 1.69 1 13 7.58c-0.01-15.42-4.92-26.73-13.01-33.01z" fill="#FF896E" p-id="10061"></path><path d="M599.06 415.63l2.59 1.5v-0.21a25.75 25.75 0 0 1-2.59-1.29z" fill="#FFA78F" p-id="10062"></path><path d="M601.64 416.92v0.21l6.67 3.88v-2.13a27.29 27.29 0 0 1-6.67-1.96z" fill="#FFA58C" p-id="10063"></path><path d="M608.32 418.88V421l6.34 3.68v-5.43a32.38 32.38 0 0 1-6.34-0.37z" fill="#FFA28A" p-id="10064"></path><path d="M614.65 419.26v5.43l2.58 1.5 0.43 0.25V419c-1 0.13-2 0.22-3.01 0.26z" fill="#FFA087" p-id="10065"></path><path d="M617.66 419v7.43q1.64 1 3.25 1.94v-9.88c-1.08 0.23-2.16 0.4-3.25 0.51z" fill="#FF9D84" p-id="10066"></path><path d="M620.91 418.51v9.88c2.79 1.69 6.24 3.82 9 5.52l0.7-18.42a53.36 53.36 0 0 1-9.7 3.02z" fill="#FF9B81" p-id="10067"></path><path d="M630.46 415.56l-1.21 0.48v17.45l3.73 2.25 0.36-21.48c-0.48 0.22-2.34 1.1-2.88 1.3z" fill="#FF987F" p-id="10068"></path><path d="M637.25 412.22c-1.74 1-3.51 1.88-5.33 2.7v20.18c1.14 0.68 2.28 1.37 3.43 2 0.84 0.48 3 1.59 3.91 2l-0.4-26.73a3.63 3.63 0 0 0-1-0.45 1.92 1.92 0 0 0-0.61 0.3z" fill="#FF967C" p-id="10069"></path><path d="M641.53 414a34.88 34.88 0 0 0-3.27-1.9l-0.34-0.16v26.49a37.5 37.5 0 0 0 6.75 2.13l0.4-24.5z" fill="#FF9379" p-id="10070"></path><path d="M643.85 415.33v25c1.27 0.25 3.53 0.49 4.82 0.59l0.33-22.62z" fill="#FF9176" p-id="10071"></path><path d="M647.69 417.56v23.25c1.22 0.1 3.5 0.16 4.72 0.13V420.3z" fill="#FF8E74" p-id="10072"></path><path d="M651.36 419.69v21.21c0.92 0 3.34-0.17 4.26-0.26l0.38-18.26z" fill="#FF8C71" p-id="10073"></path><path d="M654.16 421.32v19.45a41.82 41.82 0 0 0 9.24-2c3.92-1.31 7.48-3.61 11.05-5.68z" fill="#FF896E" p-id="10074"></path><path d="M562 406.68c2.18 14.2 8.64 28.34 21.46 35.85 5.31 3.11 10.64 6.18 16 9.27l19.37 11.25 1.14 0.66c-10.83-6.29-17.1-17.26-20-29.08l-38.71-36c0.08 2.48 0.42 5.7 0.74 8.05z" fill="#FFC2B6" p-id="10075"></path><path d="M561.26 399.59l38.81 35.74c-0.21-0.85-0.57-2.39-0.74-3.25l-38.24-35.66c0.01 0.76 0.12 2.45 0.17 3.17z" fill="#FFC1B5" p-id="10076"></path><path d="M561.12 397.43l38.3 35.09c-0.06-0.3-0.23-1-0.29-1.34-0.11-0.56-0.19-1.12-0.29-1.68L561 394.34c0 0.75 0.09 2.35 0.12 3.09z" fill="#FFC0B4" p-id="10077"></path><path d="M561.05 395.22L598.93 430c-0.14-0.84-0.36-2.18-0.48-3L561 392c0 0.81 0 2.49 0.05 3.22z" fill="#FFC0B3" p-id="10078"></path><path d="M561 393l37.5 34.53c-0.11-0.77-0.29-2.13-0.37-2.91l-37.1-34.74c-0.03 0.73-0.03 2.46-0.03 3.12z" fill="#FFBFB2" p-id="10079"></path><path d="M561 391l37.2 34.28c-0.24-2.1-0.46-4.83-0.55-6.95L561.38 384c-0.16 1.94-0.32 5.08-0.38 7z" fill="#FFBEB1" p-id="10080"></path><path d="M561.28 385.31l36.43 33.83c-0.08-1.87-0.14-4.56-0.12-6.44l-35.67-33.92c-0.21 1.7-0.52 4.82-0.64 6.53z" fill="#FFBDB0" p-id="10081"></path><path d="M561.76 380.2l35.82 33.3c0-0.74 0-2.28 0.06-3l-35.46-33.57c-0.12 0.69-0.34 2.59-0.42 3.27z" fill="#FFBCAF" p-id="10082"></path><path d="M562 378.17l35.61 33.25c0-0.82 0.1-2.57 0.15-3.39l-35.26-33.19c-0.13 0.77-0.39 2.57-0.5 3.33z" fill="#FFBCAE" p-id="10083"></path><path d="M562.33 375.89l35.38 33c0.05-1.44 0.23-3.55 0.35-4.89l-34.92-32.91c-0.24 1.3-0.62 3.56-0.81 4.8z" fill="#FFBBAD" p-id="10084"></path><path d="M563 372.18l35 32.54c0.1-1 0.28-2.77 0.41-3.81l-34.65-32.76c-0.25 0.99-0.63 3.05-0.76 4.03z" fill="#FFBAAC" p-id="10085"></path><path d="M563.51 369.27l34.82 32.22c0.08-0.7 0.24-2 0.34-2.68l-34.51-32.48c-0.16 0.67-0.51 2.28-0.65 2.94z" fill="#FFB9AB" p-id="10086"></path><path d="M563.94 367.31l34.63 32.24c0.13-0.95 0.37-2.63 0.52-3.57l-34.26-32.47c-0.23 0.9-0.7 2.91-0.89 3.8z" fill="#FFB8AA" p-id="10087"></path><path d="M564.55 364.65L599 396.56c0.16-1 0.43-2.54 0.61-3.51L565.48 361c-0.27 0.92-0.71 2.73-0.93 3.65z" fill="#FFB8A9" p-id="10088"></path><path d="M565.24 361.9l34.19 32c0.18-1 0.55-2.85 0.75-3.84l-33.92-31.87c-0.26 0.93-0.77 2.76-1.02 3.71z" fill="#FFB7A8" p-id="10089"></path><path d="M566.52 357.26c-0.18 0.6-0.34 1.2-0.51 1.81l34 31.71c0.21-1 0.59-2.74 0.82-3.75l-33.66-31.84c-0.1 0.34-0.55 1.71-0.65 2.07z" fill="#FFB6A7" p-id="10090"></path><path d="M566.85 356.2l33.81 31.57c0.13-0.56 0.43-1.88 0.56-2.44l-33.61-31.55c-0.16 0.53-0.61 1.89-0.76 2.42z" fill="#FFB5A6" p-id="10091"></path><path d="M567.35 354.62l33.73 31.28c0.23-0.94 0.6-2.43 0.84-3.36l-33.5-31.26c-0.32 0.9-0.79 2.45-1.07 3.34z" fill="#FFB4A5" p-id="10092"></path><path d="M568.19 351.95l33.47 31.58c0.36-1.4 1-3.78 1.4-5.15l-33.19-31.26c-0.46 1.31-1.24 3.5-1.68 4.83z" fill="#FFB4A4" p-id="10093"></path><path d="M569.57 348l33.31 31c0.15-0.51 0.49-1.65 0.65-2.16l-33.19-31c-0.19 0.51-0.6 1.67-0.77 2.16z" fill="#FFB3A3" p-id="10094"></path><path d="M570.09 346.52l33.3 30.77c0.13-0.44 0.39-1.33 0.53-1.76v-0.09l-33.17-30.79z" fill="#FFB2A2" p-id="10095"></path><path d="M570.58 345.18L603.77 376c0.45-1.43 1.1-3.42 1.59-4.84l-32.77-31.08c-0.59 1.36-1.49 3.73-2.01 5.1z" fill="#FFB1A1" p-id="10096"></path><path d="M572.19 341.09l33 30.64 0.71-2L573.06 339c-0.23 0.48-0.67 1.62-0.87 2.09z" fill="#FFB0A0" p-id="10097"></path><path d="M572.76 339.67l32.88 30.68c0.15-0.41 0.51-1.48 0.66-1.9l-32.73-30.65c-0.16 0.39-0.65 1.48-0.81 1.87z" fill="#FFB09F" p-id="10098"></path><path d="M573.27 338.5l32.85 30.5c0.28-0.77 0.74-2 1-2.8l-32.62-30.57c-0.29 0.69-0.92 2.13-1.23 2.87z" fill="#FFAF9E" p-id="10099"></path><path d="M574.22 336.3L607 366.62c0.23-0.6 0.63-1.67 0.87-2.27l-32.57-30.43c-0.3 0.59-0.82 1.8-1.08 2.38z" fill="#FFAE9D" p-id="10100"></path><path d="M575 334.55l32.63 30.36c0.45-1.16 1.14-2.87 1.61-4l-32.35-30.37c-0.54 1.08-1.41 2.9-1.89 4.01z" fill="#FFAD9C" p-id="10101"></path><path d="M576.54 331.24L609 361.53l0.74-1.77-32.25-30.43c-0.23 0.4-0.78 1.55-0.95 1.91z" fill="#FFAC9B" p-id="10102"></path><path d="M577.05 330.16l32.37 30.24c0.41-1 1.1-2.56 1.52-3.51l-32.2-30.14c-0.47 0.91-1.24 2.48-1.69 3.41z" fill="#FFAC9A" p-id="10103"></path><path d="M578.42 327.39l32.21 30.22 0.88-2-32.18-30z" fill="#FFAB99" p-id="10104"></path><path d="M579 326.18l32.25 29.92 0.7-1.53-32.14-30z" fill="#FFAA98" p-id="10105"></path><path d="M579.57 325.16l32.2 29.84 1-2-32.08-29.9c-0.33 0.5-0.86 1.55-1.12 2.06z" fill="#FFA997" p-id="10106"></path><path d="M580.36 323.63l32.09 29.95c0.62-1.31 1.53-3.2 2.18-4.49l-31.86-29.8c-0.71 1.23-1.77 3.08-2.41 4.34z" fill="#FFA896" p-id="10107"></path><path d="M582.42 319.88l31.93 29.74c0.79-1.57 1.87-3.68 2.71-5.23l-31.74-29.5c-0.89 1.5-2.04 3.47-2.9 4.99z" fill="#FFA895" p-id="10108"></path><path d="M585 315.35l31.73 29.57 0.93-1.72L586 313.77z" fill="#FFA794" p-id="10109"></path><path d="M586.78 312.46c-0.36 0.58-0.7 1.17-1.05 1.75l31.74 29.42c0.39-0.7 1-1.83 1.41-2.53l-31.64-29.37z" fill="#FFA693" p-id="10110"></path><path d="M587 312.17l31.66 29.39 0.81-1.42-31.61-29.3c-0.24 0.31-0.7 1.01-0.86 1.33z" fill="#FFA592" p-id="10111"></path><path d="M587.56 311.24l31.69 29.2 1-1.67-31.56-29.21z" fill="#FFA491" p-id="10112"></path><path d="M588.41 309.92L620 339.16c0.32-0.54 0.88-1.47 1.2-2l-31.28-29.51c-0.4 0.54-1.17 1.75-1.51 2.27z" fill="#FFA490" p-id="10113"></path><path d="M589.42 308.36L621 337.5c0.87-1.46 2-3.25 2.88-4.68l-31.19-29.2c-1.01 1.38-2.35 3.38-3.27 4.74z" fill="#FFA38F" p-id="10114"></path><path d="M592.26 304.19l31.26 29.13 1.05-1.63-31.13-29.21z" fill="#FFA28E" p-id="10115"></path><path d="M593 303.08l31.29 29 1.11-1.71-31-29.25c-0.31 0.44-1.08 1.54-1.4 1.96z" fill="#FFA18C" p-id="10116"></path><path d="M593.92 301.81l31.23 29c0.65-1 1.58-2.38 2.26-3.37l-30.89-29.08c-0.71 0.91-1.91 2.49-2.6 3.45z" fill="#FFA08B" p-id="10117"></path><path d="M596 299l31 29 1.53-2.22-30.95-28.85c-0.39 0.48-1.12 1.49-1.58 2.07z" fill="#FFA08A" p-id="10118"></path><path d="M597.27 297.32l31 28.86 1.34-1.9-30.8-28.87c-0.38 0.46-1.18 1.45-1.54 1.91z" fill="#FF9F89" p-id="10119"></path><path d="M598.36 296l30.9 28.79 0.87-1.22c0.39-0.54 0.8-1.07 1.2-1.61l-30.68-28.79c-0.65 0.72-1.65 2.02-2.29 2.83z" fill="#FF9E88" p-id="10120"></path><path d="M600.19 293.68l30.69 28.82c0.31-0.42 1.06-1.44 1.38-1.86l-30.57-28.79c-0.38 0.42-1.17 1.42-1.5 1.83z" fill="#FF9D87" p-id="10121"></path><path d="M601.18 292.45L632 321c0.59-0.78 1.45-1.87 2.07-2.64l-30.41-28.76c-0.66 0.7-1.85 2.1-2.48 2.85z" fill="#FF9C86" p-id="10122"></path><path d="M603.1 290.23l30.56 28.61c0.5-0.63 1.42-1.76 1.93-2.37L605.09 288c-0.53 0.55-1.47 1.62-1.99 2.23z" fill="#FF9C85" p-id="10123"></path><path d="M604.67 288.42l30.54 28.49c0.37-0.45 1.11-1.35 1.48-1.79l-30.46-28.44c-0.41 0.43-1.17 1.32-1.56 1.74z" fill="#FF9B84" p-id="10124"></path><path d="M605.82 287.13l30.54 28.38 1.36-1.58-30.32-28.48c-0.4 0.39-1.23 1.29-1.58 1.68z" fill="#FF9A83" p-id="10125"></path><path d="M606.9 286l30.37 28.46c1-1.15 2.45-2.79 3.48-3.92l-30.37-28.2c-1.06 1.03-2.44 2.53-3.48 3.66z" fill="#FF9982" p-id="10126"></path><path d="M610 282.67l30.23 28.39 1.11-1.22-30.16-28.33z" fill="#FF9881" p-id="10127"></path><path d="M610.7 282l30.3 28.28c0.84-0.91 2.11-2.24 3-3.13l-30.22-28.07c-0.96 0.86-2.21 2.07-3.08 2.92z" fill="#FF9780" p-id="10128"></path><path d="M613.36 279.43l30.15 28.15 1.41-1.43-30.3-27.94c-0.36 0.33-0.92 0.9-1.26 1.22z" fill="#FF977F" p-id="10129"></path><path d="M614.37 278.44l30.11 28.14 1.46-1.46-30.3-27.82c-0.36 0.33-0.92 0.81-1.27 1.14z" fill="#FF967E" p-id="10130"></path><path d="M615.45 277.47l30.07 28.08 1.28-1.27-30.18-27.85z" fill="#FF957D" p-id="10131"></path><path d="M616.35 276.67l30 28 1.49-1.42-30.21-27.76z" fill="#FF947C" p-id="10132"></path><path d="M619.08 274.22c-0.56 0.48-1.1 1-1.65 1.48l30.07 27.89c1.44-1.38 3.24-3 4.73-4.37l-29.94-27.66c-0.98 0.8-2.29 1.85-3.21 2.66z" fill="#FF937B" p-id="10133"></path><path d="M622 271.8l29.91 27.7 1.1-1-30-27.61z" fill="#FF937A" p-id="10134"></path><path d="M622.8 271.16l29.88 27.68c0.73-0.64 1.8-1.56 2.54-2.19L625.5 269c-0.79 0.65-1.94 1.54-2.7 2.16z" fill="#FF9279" p-id="10135"></path><path d="M625.11 269.34L654.82 297l1.87-1.55L627 267.91c-0.52 0.39-1.38 1.09-1.89 1.43z" fill="#FF9178" p-id="10136"></path><path d="M626.64 268.18l29.65 27.58 1.37-1.13-29.6-27.49z" fill="#FF9077" p-id="10137"></path><path d="M627.67 267.43l29.46 27.64c1.4-1.13 3.34-2.65 4.76-3.72l-29.43-27.25c-1.53 1.01-3.34 2.26-4.79 3.33z" fill="#FF8F76" p-id="10138"></path><path d="M632.11 264.33l29.35 27.34 1.29-1-29.26-27.27z" fill="#FF8F75" p-id="10139"></path><path d="M633 263.74L662.34 291l2.08-1.52-29.3-27.08z" fill="#FF8E74" p-id="10140"></path><path d="M634.79 262.61l29.14 27.23 1.44-1-29.24-27z" fill="#FF8D73" p-id="10141"></path><path d="M635.79 262l29.13 27.13 1.69-1.19-28.9-27.08z" fill="#FF8C72" p-id="10142"></path><path d="M637.13 261.2l29.06 27a136.3 136.3 0 0 1 5.48-3.63l-28.85-26.47c-1.82 0.9-3.9 2.05-5.69 3.1z" fill="#FF8B71" p-id="10143"></path><path d="M642.6 258.23l28.72 26.58 0.66-0.42 0.32-0.19-28.82-26.4z" fill="#FF8B70" p-id="10144"></path><path d="M643.29 257.89L672 284.38l1.51-0.93-28.54-26.37z" fill="#FF8A6F" p-id="10145"></path><path d="M693.66 256.71a45.09 45.09 0 0 0-10-4.53 46.82 46.82 0 0 0-21.89-0.63 73 73 0 0 0-17.16 5.7l28.36 26.54c14.65-8.93 33.44-15.73 50.1-9.41a35.26 35.26 0 0 1 5.43 2.62l-14.74-8.57z" fill="#FF896E" p-id="10146"></path><path d="M597.58 414.6c0.14 48.57 34.64 68.23 76.9 43.83v-12.16L666 437.2c-26.12 10.4-46.25-4-46.34-35.34a86.62 86.62 0 0 1 1.56-15.93l-15.34-16.15c-5.35 15.1-8.34 30.43-8.3 44.82z" fill="#FFA78F" p-id="10147"></path><path d="M605.55 370.64L621 386.8a107.92 107.92 0 0 1 2.56-10.8l-14.45-14.81c-1.17 2.88-2.53 6.45-3.56 9.45zM674.41 434.12l-0.62-0.7a63.86 63.86 0 0 1-8.63 4.1l9.29 9.71z" fill="#FFA58D" p-id="10148"></path><path d="M674.41 433.08l-0.82 0.45 0.82 0.92zM608.66 362.34l14.6 14.75c0.86-3.08 2.34-7.54 3.54-10.62l-14-13.67c-1.29 2.79-3 6.6-4.14 9.54z" fill="#FFA48B" p-id="10149"></path><path d="M612.48 353.52l13.78 14.35c0.63-1.69 1.79-4.48 2.5-6.16l-13.61-13.62c-0.8 1.56-1.92 3.85-2.67 5.43z" fill="#FFA28A" p-id="10150"></path><path d="M614.63 349.13l13.66 13.69c1.23-2.9 3-6.64 4.46-9.47l-13.19-13.41c-1.56 2.68-3.56 6.3-4.93 9.19z" fill="#FFA088" p-id="10151"></path><path d="M618.8 341.27l13.49 12.95c0.78-1.52 2.19-4.09 3-5.58l-13.19-13.06c-0.84 1.42-2.46 4.23-3.3 5.69z" fill="#FF9F86" p-id="10152"></path><path d="M621.38 336.84l13.35 12.86c1.63-2.91 3.74-6.33 5.62-9.14l-12.82-13.31c-1.87 2.75-4.4 6.67-6.15 9.59z" fill="#FF9D84" p-id="10153"></path><path d="M626.78 328.35l13.16 12.82c1.05-1.58 2.63-3.86 3.79-5.41l-12.93-13.15c-1.12 1.39-2.9 4.01-4.02 5.74z" fill="#FF9B82" p-id="10154"></path><path d="M630.27 323.3l12.91 13.19c1-1.32 2.63-3.51 3.68-4.81l-13.12-13c-0.95 1.18-2.5 3.32-3.47 4.62z" fill="#FF9A80" p-id="10155"></path><path d="M633.17 319.42l13 13.18c0.76-1 2.08-2.58 2.86-3.51l-12.93-13.32c-0.8 0.91-2.18 2.68-2.93 3.65z" fill="#FF987F" p-id="10156"></path><path d="M635.64 316.28l12.81 13.47c0.94-1.12 2.46-2.86 3.43-3.93l-13.06-13.37c-0.95 1.11-2.26 2.7-3.18 3.83z" fill="#FF967D" p-id="10157"></path><path d="M638.54 312.78l12.78 13.69A113.25 113.25 0 0 1 662 316.1l-13.75-13.87c-3.25 3.23-6.67 6.97-9.71 10.55z" fill="#FF957B" p-id="10158"></path><path d="M648 302.53l13.27 14.23a87.77 87.77 0 0 1 7.85-6l-14.3-14.59a113.33 113.33 0 0 0-6.82 6.36z" fill="#FF9379" p-id="10159"></path><path d="M654.37 296.51l13.91 14.78c1.6-1.12 4-2.65 5.63-3.61l-14.74-15.21c-1.47 1.19-3.34 2.75-4.8 4.04z" fill="#FF9177" p-id="10160"></path><path d="M674.05 307.6c1.09-0.63 2.89-1.61 4.07-2.16l-15.28-15.8c-1.23 0.92-2.73 2.09-3.94 3.06l14.26 15.44z" fill="#FF9075" p-id="10161"></path><path d="M682.84 303.35L667 286.7c-1.39 0.95-3.13 2.2-4.49 3.21l14.82 15.94c1.58-0.85 3.86-1.85 5.51-2.5z" fill="#FF8E74" p-id="10162"></path><path d="M688 301.64l-16.79-17.7c-1.43 0.88-3.17 2-4.57 3l15.44 16.74a51.1 51.1 0 0 1 5.92-2.04z" fill="#FF8C72" p-id="10163"></path><path d="M693.16 300.55l-18.09-18.91-1.09 0.61c-0.93 0.54-2.17 1.31-3.09 1.88l16.31 17.73a53.12 53.12 0 0 1 5.96-1.31z" fill="#FF8B70" p-id="10164"></path><path d="M728.83 338.81l19.82 11.42s0.92-2.66 1.71-10a85.24 85.24 0 0 0 0.52-14.2c-0.14-48.15-34.5-67.82-76.18-44.23l17.38 18.88c21.31-3.68 36.68 10.8 36.75 38.13z" fill="#FF896E" p-id="10165"></path></svg>