<?xml version="1.0" standalone="no"?><!DOCTYPE svg PUBLIC "-//W3C//DTD SVG 1.1//EN" "http://www.w3.org/Graphics/SVG/1.1/DTD/svg11.dtd"><svg t="1683421381621" class="icon" viewBox="0 0 1024 1024" version="1.1" xmlns="http://www.w3.org/2000/svg" p-id="25968" width="64" height="64" xmlns:xlink="http://www.w3.org/1999/xlink"><path d="M934.7 221.11v622.8a83.19 83.19 0 0 1-83.2 83.2H228.7a126 126 0 0 1-126-126v-580a125.93 125.93 0 0 1 126-126h580a126 126 0 0 1 126 126z" fill="#4974EE" p-id="25969"></path><path d="M731.1 928H222A126 126 0 0 1 96 802V370q12.42-0.5 25-0.5 15.06 0 29.93 0.72C445.31 384.42 685.22 606.47 727 892.83q2.55 17.43 4.1 35.17z" fill="#FFFFFF" opacity=".2" p-id="25970"></path><path d="M928 222v622.8a82.87 82.87 0 0 1-6.69 32.74A635.16 635.16 0 0 1 774.7 894.6q-24.06 0-47.69-1.77c-291-21.67-527.21-240-576.13-522.58a638.8 638.8 0 0 1 8.24-257.47A125.48 125.48 0 0 1 222 96h580a126 126 0 0 1 126 126z" fill="#FFFFFF" opacity=".14" p-id="25971"></path><path d="M427.69 290.24h84a36 36 0 1 0 0-72h-84a36 36 0 0 0 0 72z" fill="#FFFFFF" p-id="25972"></path><path d="M640.77 558.24a121.5 121.5 0 0 1 31.42 4.11V313.76a49.67 49.67 0 0 0-49.53-49.52h-48a50.05 50.05 0 0 1-49.89 49H414.6a50.05 50.05 0 0 1-49.89-49h-48a49.66 49.66 0 0 0-49.52 49.52v366a49.67 49.67 0 0 0 49.52 49.52h213.07a121.56 121.56 0 0 1 111-171z m-293.58-167h245a15 15 0 0 1 0 30h-245a15 15 0 0 1 0-30z m-15 105.42a13.64 13.64 0 0 1 13.6-13.6h198.88a13.64 13.64 0 0 1 13.6 13.6v2.8a13.64 13.64 0 0 1-13.6 13.6H345.79a13.64 13.64 0 0 1-13.6-13.6z m145.08 94a14.26 14.26 0 0 1-14.22 14.22H346.4a14.25 14.25 0 0 1-14.21-14.22v-1.56a14.25 14.25 0 0 1 14.21-14.22h116.65a14.26 14.26 0 0 1 14.22 14.22zM619.12 694.5a2.16 2.16 0 0 0 2.16-2.16 2 2 0 0 0-2.16-2.16 2.16 2.16 0 0 0 0 4.32z" fill="#FFFFFF" p-id="25973"></path><path d="M658.71 581a111.5 111.5 0 1 0 111.5 111.5A111.5 111.5 0 0 0 658.71 581z m-59.58 108.85l65-65.91a7.05 7.05 0 0 1 9.72 0l14.59 14.59a7.06 7.06 0 0 1 0 9.73l-23.77 24.09a10.11 10.11 0 0 0-2.92-0.86 11.22 11.22 0 0 0-3.13-0.33 16 16 0 0 0-16 16 12.69 12.69 0 0 0 0.32 3.46c0.32 1.19 0.54 2 0.86 2.92l-20.31 20.64a7.05 7.05 0 0 1-9.72 0l-14.7-14.59a7.06 7.06 0 0 1 0.06-9.74z m65.59-1.94a6.59 6.59 0 0 1-13.18-0.22 6.24 6.24 0 0 1 6.59-6.37 6.69 6.69 0 0 1 6.59 6.59z m38.14 72.39h-81.69a9.73 9.73 0 0 1 0-19.45h20.64c21.5-12.64 20.64-27.55 16.86-37a15.72 15.72 0 0 0 15.45-13.72c12.64 8 9.18 40.73 8 50.67h20.75a9.73 9.73 0 0 1 0 19.45z" fill="#FFFFFF" p-id="25974"></path></svg>