<?xml version="1.0" standalone="no"?><!DOCTYPE svg PUBLIC "-//W3C//DTD SVG 1.1//EN" "http://www.w3.org/Graphics/SVG/1.1/DTD/svg11.dtd"><svg t="1682726453141" class="icon" viewBox="0 0 1024 1024" version="1.1" xmlns="http://www.w3.org/2000/svg" p-id="6713" width="64" height="64" xmlns:xlink="http://www.w3.org/1999/xlink"><path d="M477.49 130.34c14.01-1.55 28.24-2.34 42.67-2.34 212.08 0 384 171.92 384 384s-171.92 384-384 384c-14.42 0-28.66-0.8-42.67-2.34 192-21.22 341.33-184 341.33-381.66S669.49 151.57 477.49 130.34z" fill="#FFCB4B" fill-opacity=".35" p-id="6714"></path><path d="M905.42 349.23c-21.06-49.8-51.21-94.51-89.6-132.9s-83.1-68.53-132.9-89.6c-51.57-21.81-106.33-32.87-162.77-32.87-75.7 0-149.87 20.45-214.5 59.14-62.73 37.56-114.77 91.11-150.5 154.86-9.22 16.45-3.35 37.25 13.09 46.46 16.44 9.22 37.25 3.35 46.46-13.09 29.91-53.38 73.48-98.21 126.01-129.66 54.03-32.35 116.08-49.45 179.43-49.45 93.45 0 181.31 36.39 247.39 102.47 66.1 66.1 102.49 153.96 102.49 247.41 0 93.45-36.39 181.31-102.47 247.39-66.08 66.08-153.94 102.47-247.39 102.47-93.45 0-181.31-36.39-247.39-102.47C206.68 693.31 170.29 605.45 170.29 512c0-18.85-15.28-34.13-34.13-34.13s-34.13 15.28-34.13 34.13c0 56.43 11.06 111.2 32.87 162.77 21.06 49.79 51.21 94.51 89.6 132.9s83.1 68.53 132.9 89.6c51.57 21.81 106.33 32.87 162.77 32.87s111.2-11.06 162.77-32.87c49.79-21.06 94.51-51.21 132.9-89.6s68.53-83.1 89.6-132.9c21.81-51.57 32.87-106.33 32.87-162.77s-11.08-111.2-32.89-162.77z" fill="#3F3F3F" p-id="6715"></path><path d="M392.16 563.2c-18.85 0-34.13 15.28-34.13 34.13s15.28 34.13 34.13 34.13h93.87v51.2c0 18.85 15.28 34.13 34.13 34.13s34.13-15.28 34.13-34.13v-51.2h93.87c18.85 0 34.13-15.28 34.13-34.13s-15.28-34.13-34.13-34.13h-93.87v-38.4h72.53c18.85 0 34.13-15.28 34.13-34.13s-15.28-34.13-34.13-34.13h-57.11l64.18-96.27c10.46-15.69 6.22-36.88-9.47-47.33-15.68-10.46-36.88-6.22-47.33 9.47l-56.93 85.4-56.93-85.4c-10.46-15.69-31.65-19.92-47.33-9.47-15.69 10.46-19.92 31.65-9.47 47.33l64.18 96.27H413.5c-18.85 0-34.13 15.28-34.13 34.13s15.28 34.13 34.13 34.13h72.53v38.4h-93.87z" fill="#3F3F3F" p-id="6716"></path><path d="M126.88 235.57l177.71 94.47L119.84 436.7z" fill="#FFC33E" p-id="6717"></path></svg>